PathFileType	4	(X/Y/Z)	C:/Users/beibeiliu/ov580/test_trc/capture2\sequence.16_training_dense_left.trc
DataRate	CameraRate	NumFrames	NumMarkers	Units	OrigDataRate	OrigDataStartFrame	OrigNumFrames
120	120	17	19	mm	120	251	400
Frame#	Time	ThumbCMC			ThumbMCP			ThumbIP			ThumbTip			IndexMCP			IndexPIP			IndexTip			MiddleMCP			MiddlePIP			MiddleTip			RingMCP			RingPIP			RingTip			PinkyMCP			PinkyPIP			PinkyTip			BackHand1			BackHand2			BackHand3	
		X0	Y0	Z0	X1	Y1	Z1	X2	Y2	Z2	X3	Y3	Z3	X4	Y4	Z4	X5	Y5	Z5	X6	Y6	Z6	X7	Y7	Z7	X8	Y8	Z8	X9	Y9	Z9	X10	Y10	Z10	X11	Y11	Z11	X12	Y12	Z12	X13	Y13	Z13	X14	Y14	Z14	X15	Y15	Z15	X16	Y16	Z16	X17	Y17	Z17	X18	Y18	Z18	
250	2.08333	-129.943	120.713	-44.0202	-106.785	108.786	-53.2694	-82.4115	107.5	-62.41	-65.8556	103.914	-66.0557	-92.8814	152.141	-99.9588	-85.5497	157.304	-122.457	-72.1711	162.867	-149.921	-119.186	141.756	-123.971	-127.501	112.689	-129.4	-145.127	103.387	-100.385	-137.943	142.672	-122.685	-152.12	113.102	-122.81	-157.482	107.955	-91.1145	-156.364	147.805	-122.029	-163.796	118.891	-114.422	-164.789	120.363	-83.0875	-150.801	169.92	-74.5269	-167.777	160.805	-48.4233	-137.511	151.053	-49.1034	
251	2.09167	-126.553	120.694	-40.4517	-106.422	112.577	-52.3289	-81.464	114.357	-63.5012	-60.9655	116.182	-70.6734	-101.315	154.063	-108.611	-92.1024	156.053	-130.543	-83.9501	160.555	-152.799	-123.083	136.61	-124.077	-130.118	107.581	-130.303	-142.07	96.2411	-97.8938	-143.73	133.074	-127.406	-148.495	103.45	-121.356	-156.898	101.909	-87.6845	-162.608	137.517	-121.816	-163.807	108.101	-113.156	-162.17	116.439	-79.1571	-157.291	164.658	-79.9141	-173.303	156.79	-49.9084	-142.089	153.697	-53.6219	
252	2.1	-128.432	123.623	-43.0232	-100.995	120.994	-55.4103	-80.5654	123.232	-64.0164	-60.3022	125.328	-70.8953	-109.321	151.823	-111.011	-102.603	153.025	-139.364	-95.9327	157.485	-162.939	-129.129	129.479	-128.137	-127.636	99.3915	-128.565	-137.926	90.0957	-91.263	-147.575	123.711	-127.159	-147.331	95.1869	-120.63	-155.924	92.7417	-87.2322	-168.48	120.154	-125.681	-160.231	97.7468	-106.86	-161.231	111.8	-79.8375	-166.791	154.386	-82.3098	-178.301	149.524	-52.8029	-145.419	151.272	-56.2673	
253	2.10833	-125.917	125.014	-41.3541	-105.222	122.972	-57.2195	-80.9191	130.613	-66.628	-61.6877	135.076	-72.0996	-120.474	147.802	-120.374	-110.419	146.799	-140.016	-104.564	148.919	-165.146	-131.588	120.356	-128.679	-125.379	91.8458	-127.312	-135.344	84.1593	-91.2296	-150.547	109.284	-128.472	-147.282	82.8365	-115.938	-152.467	88.4823	-80.9236	-169.047	106.224	-124.292	-158.969	86.3785	-103.495	-164.138	101.078	-77.1778	-174.349	145.343	-88.6345	-184.407	140.909	-58.2541	-148.19	145.854	-60.6749	
254	2.11667	-130.14	127.583	-49.1808	-104.994	127.985	-58.5765	-86.2875	135.063	-69.8182	-66.4027	143.58	-79.6117	-124.126	141.328	-121.336	-115.838	138.983	-145.125	-111.727	137.339	-172.747	-137.959	114.552	-127.762	-124.71	83.7662	-124.222	-133.024	81.4135	-83.947	-152.399	101.054	-126.917	-140.467	74.789	-109.871	-149.779	82.7175	-78.3081	-170.643	92.3872	-122.462	-155.244	76.7304	-103.181	-161.039	95.6924	-76.7596	-178.409	134.389	-89.9532	-186.785	129.859	-58.7098	-155.498	141.654	-61.8663	
255	2.125	-134.92	125.79	-51.817	-111.922	128.092	-61.3424	-91.5321	138.482	-73.8036	-74.2476	147.772	-85.686	-131.704	133.987	-124.638	-124.131	128.548	-151.135	-120.882	124.55	-173.575	-134.275	104.858	-127.697	-124.801	76.8158	-121.609	-132.644	76.5684	-83.7084	-150.333	91.5363	-124.921	-138.82	65.7933	-106.093	-144.649	78.715	-74.5326	-165.341	79.6517	-120.837	-154.161	64.1137	-99.6891	-161.14	85.8968	-73.1031	-182.633	121.715	-91.5564	-190.955	121.115	-59.9579	-164.727	135.393	-65.4677	
256	2.13333	-139.051	126.558	-50.6696	-116.251	130.422	-64.4074	-101.254	139.573	-81.8012	-82.5416	154.01	-90.2313	-135.544	125.873	-126.208	-124.677	120.189	-153.936	-122.159	111.404	-177.498	-140.566	93.6517	-128.118	-120.403	70.095	-118.047	-127.7	74.2428	-81.5018	-146.273	78.4814	-123.094	-132.754	60.1929	-103.641	-141.465	73.4701	-73.9446	-164.034	67.5564	-117.992	-143.777	59.6116	-97.652	-152.656	76.3216	-71.9957	-186.441	107.579	-93.9219	-195.719	111.34	-62.1367	-171.759	127.885	-69.7638	
257	2.14167	-143.738	126.167	-52.9564	-122.91	131.888	-69.1763	-110.012	139.719	-84.2994	-94.3275	152.994	-96.728	-138.452	117.567	-133.471	-130.13	106.335	-155.304	-124.243	97.9075	-175.252	-134.949	88.6003	-128.473	-115.968	65.7162	-110.542	-124.398	76.8874	-78.4357	-147.714	71.3379	-121.392	-127.046	55.9828	-100.826	-134.397	72.1988	-72.3963	-158.961	57.3412	-113.607	-138.654	53.8006	-91.8284	-148.304	70.2318	-66.0171	-186.728	95.4425	-95.7261	-199.361	100.237	-63.4597	-173.999	119.119	-77.5713	
258	2.15	-152.264	123.92	-57.8235	-132.626	129.033	-69.5565	-117.117	146.697	-89.5845	-107.643	156.657	-100.754	-142.553	107.197	-133.067	-131.819	98.2017	-153.44	-122.463	88.2633	-173.625	-136.484	78.2503	-126.512	-109.793	67.6073	-107.226	-125.944	75.5234	-74.6428	-139.712	63.0971	-117.081	-118.765	58.0842	-94.2906	-134.463	72.0474	-64.9805	-149.623	50.9117	-109.547	-131.15	49.7946	-84.4805	-141.837	66.4795	-64.6626	-190.012	82.7734	-93.7619	-199.03	91.8403	-65.5578	-179.465	111.856	-77.6776	
259	2.15833	-158.722	123.483	-61.9966	-140.936	132.978	-75.0764	-129.957	145.367	-97.4091	-120.49	160.574	-104.876	-145.036	98.5389	-132.154	-129.785	95.3648	-151.178	-117.465	82.6267	-170.776	-133.092	74.4023	-123.512	-106.762	66.4476	-107.498	-118.998	79.0791	-70.538	-134.837	56.1395	-111.644	-115.205	55.8735	-90.4527	-129.801	74.6258	-62.4302	-147.522	46.0274	-103.661	-126.165	47.0473	-79.6188	-138.084	69.4619	-59.6256	-190.655	70.9515	-91.4955	-199.968	81.0098	-63.7457	-183.522	108.417	-80.5253	
260	2.16667	-165.849	118.663	-62.5353	-149.8	132.239	-77.1278	-139.721	143.717	-97.5869	-131.851	155.999	-108.093	-143.274	91.5429	-131.767	-128.842	84.5289	-146.422	-111.449	76.6889	-166.769	-130.481	72.1858	-118.887	-102.798	68.3918	-102.527	-113.961	79.9794	-65.7567	-132.746	57.5808	-106.891	-110.428	59.2879	-85.0594	-127.195	72.5976	-57.8023	-135.048	41.6382	-96.4485	-119.874	48.4945	-75.9619	-136.547	70.6546	-53.1163	-186.203	61.5951	-88.6952	-200.293	70.9288	-62.6358	-186.602	95.4552	-78.8095	
261	2.175	-172.936	114.842	-60.0433	-155.983	129.411	-77.6032	-145.157	139.456	-101.748	-140.004	153.993	-113.736	-140.728	90.873	-129.521	-121.743	84.0499	-146.793	-103.85	69.8052	-160.641	-125.255	68.928	-114.882	-99.338	67.6682	-94.0599	-110.539	77.2271	-62.661	-127.803	52.2036	-100.606	-106.788	57.9346	-74.2065	-126.28	74.396	-52.4046	-133.066	39.4938	-90.9985	-116.658	49.2741	-68.1315	-136.291	68.621	-49.7854	-179.268	55.3809	-88.8189	-198.259	60.902	-63.5391	-188.02	93.5541	-79.8615	
262	2.18333	-177.211	110.129	-61.0242	-160.651	122.117	-79.1612	-152.721	135.877	-96.8059	-145.078	151.567	-117.817	-138.018	81.1571	-125.524	-116.919	80.226	-142.639	-96.5692	66.8911	-156.013	-124.05	66.4911	-108.621	-96.4594	71.4967	-89.8722	-111.841	79.417	-55.9435	-120.977	50.7707	-94.0506	-104.968	61.3003	-67.4438	-125.573	75.5892	-48.3497	-124.065	36.2406	-83.7268	-113.765	51.8712	-57.9152	-132.391	67.0758	-42.5169	-178.861	52.2035	-83.9525	-198.93	54.6922	-57.6572	-187.665	81.7882	-76.8392	
263	2.19167	-180.269	108.82	-60.2198	-165.206	122.94	-79.4932	-155.554	134.455	-99.748	-149.275	145.23	-115.672	-135.182	81.4191	-122.285	-113.437	76.7199	-137.924	-93.784	70.5927	-149.974	-120.228	65.1878	-104.24	-93.9057	72.4295	-82.4655	-114.224	83.1932	-50.6469	-117.904	53.3955	-90.341	-102.296	61.1599	-64.5502	-126.047	76.7517	-44.8125	-122.273	37.5557	-77.9234	-111.65	55.46	-55.0327	-135.283	68.0746	-38.5088	-172.095	43.5815	-80.0169	-194.475	49.213	-54.7437	-184.568	79.2705	-79.0093	
264	2.2	-179.497	100	-57.6303	-166.912	116.548	-72.7392	-156.505	130.369	-99.8333	-152.267	141.528	-112.259	-132.435	74.196	-117.389	-113.575	76.3298	-131.248	-90.5376	67.9988	-143.661	-112.259	61.3848	-99.3659	-92.6774	75.0545	-79.3427	-111.918	85.569	-50.2469	-114.243	49.0873	-84.5389	-100.45	66.0173	-60.51	-124.723	76.692	-42.3407	-113.988	36.9092	-71.1125	-106.933	53.5322	-50.5223	-130.869	66.7838	-37.7576	-167.892	42.4027	-76.9909	-188.809	44.3508	-54.1579	-185.706	71.5683	-74.4558	
265	2.20833	-177.662	96.6887	-60.2362	-165.75	110.373	-71.7182	-159.951	125.382	-94.5479	-152.706	134.795	-111.454	-131.092	71.3777	-110.626	-105.138	70.9115	-128.138	-84.4641	65.3111	-136.25	-112.178	61.5314	-95.1068	-89.7703	70.9673	-74.279	-111.9	83.1075	-45.1238	-107.611	50.9728	-79.5867	-97.1931	63.1546	-52.6204	-122.014	74.0843	-36.9547	-111.079	34.9737	-66.3521	-106.852	56.1145	-43.0062	-133.479	65.3801	-32.3043	-165.25	34.8138	-72.9462	-185.64	37.6068	-53.2193	-182.636	67.6675	-73.7779	
266	2.21667	-175.897	90.7894	-57.083	-163.297	104.263	-71.2537	-157.535	118.446	-92.1657	-151.07	129.234	-109.926	-126.085	66.6085	-106.429	-103.95	68.3542	-121.092	-78.8216	64.9994	-129.752	-106.042	56.141	-88.497	-86.4979	71.7229	-66.7457	-112.885	81.9128	-38.5359	-104.028	47.4289	-74.727	-93.6286	62.0751	-48.5258	-124.704	71.2078	-29.5087	-104.846	35.3712	-60.1562	-102.402	53.8861	-35.8383	-130.289	64.3933	-27.8256	-158.112	30.5574	-71.7589	-180.689	30.4797	-46.1805	-178.824	60.946	-68.9047	
